<?xml version="1.0" encoding="utf-8"?>
<!-- Generator: Adobe Illustrator 23.0.2, SVG Export Plug-In . SVG Version: 6.00 Build 0)  -->
<svg version="1.1" id="Layer_1" xmlns="http://www.w3.org/2000/svg" xmlns:xlink="http://www.w3.org/1999/xlink" x="0px" y="0px"
	 width="55px" height="50px" viewBox="0 0 55 50" style="enable-background:new 0 0 55 50;" xml:space="preserve">
<style type="text/css">
	.st0{fill:#DDE22F;}
	.st1{fill:#F99D28;}
	.st2{fill:#00A75E;}
	.st3{fill:#77C043;}
</style>
<g>
	<g>
		<path class="st0" d="M22.6,50C10.1,50,0,39.9,0,27.4S10.1,4.9,22.6,4.9c12.5,0,22.6,10.1,22.6,22.6S35.1,50,22.6,50z M22.6,14.2
			c-7.3,0-13.3,6-13.3,13.3s6,13.3,13.3,13.3s13.3-6,13.3-13.3S30,14.2,22.6,14.2z"/>
	</g>
	<g>
		<path class="st1" d="M31,45.1C18.6,45.1,8.4,35,8.4,22.6S18.6,0,31,0s22.6,10.1,22.6,22.6S43.5,45.1,31,45.1z M31,9.3
			c-7.3,0-13.3,6-13.3,13.3s6,13.3,13.3,13.3c7.3,0,13.3-6,13.3-13.3S38.4,9.3,31,9.3z"/>
	</g>
	<g>
		<path class="st2" d="M32.4,50C19.9,50,9.8,39.9,9.8,27.4S19.9,4.9,32.4,4.9S55,15,55,27.4S44.9,50,32.4,50z M32.4,14.2
			c-7.3,0-13.3,6-13.3,13.3s6,13.3,13.3,13.3c7.3,0,13.3-6,13.3-13.3S39.7,14.2,32.4,14.2z"/>
	</g>
	<g>
		<path class="st3" d="M27.5,50C15,50,4.9,39.9,4.9,27.4S15,4.9,27.5,4.9S50.1,15,50.1,27.4S40,50,27.5,50z M27.5,14.2
			c-7.3,0-13.3,6-13.3,13.3s6,13.3,13.3,13.3c7.3,0,13.3-6,13.3-13.3S34.9,14.2,27.5,14.2z"/>
	</g>
</g>
</svg>
